#define bwidget_width 76
#define bwidget_height 64
static unsigned char bwidget_bits[] = {
   0x00, 0x00, 0x00, 0x00, 0x00, 0x00, 0x00, 0x00, 0x00, 0x00, 0x00, 0x00,
   0x00, 0x00, 0x00, 0x00, 0x00, 0x00, 0x00, 0x00, 0x00, 0x00, 0x00, 0x00,
   0x00, 0x00, 0x00, 0x00, 0x00, 0x00, 0x00, 0x00, 0x00, 0x00, 0x00, 0x00,
   0x00, 0x00, 0x00, 0x00, 0x00, 0x00, 0x00, 0x00, 0x00, 0x00, 0x00, 0x00,
   0x00, 0x00, 0x00, 0x00, 0x00, 0x00, 0x00, 0x00, 0x00, 0x00, 0x00, 0x00,
   0x00, 0x00, 0x00, 0x00, 0x00, 0x00, 0x00, 0x00, 0x00, 0x00, 0x00, 0x00,
   0x00, 0x00, 0x00, 0x00, 0x00, 0x00, 0x00, 0x00, 0x00, 0xff, 0x00, 0x00,
   0xe0, 0x1f, 0x00, 0x00, 0x00, 0x00, 0x00, 0xf7, 0x00, 0x00, 0xe0, 0x1e,
   0x00, 0x00, 0x00, 0x00, 0x00, 0x55, 0x01, 0x00, 0xb0, 0x1b, 0x00, 0x00,
   0x00, 0x00, 0x00, 0x6d, 0x03, 0x00, 0xe8, 0x1e, 0x00, 0x00, 0x00, 0x00,
   0x00, 0xb3, 0x03, 0x00, 0xb4, 0x1f, 0x00, 0x00, 0x00, 0x00, 0x00, 0x73,
   0x07, 0x00, 0xfe, 0x1d, 0x00, 0x00, 0x00, 0x00, 0x00, 0xdf, 0x0d, 0x00,
   0x6e, 0x1b, 0x00, 0x00, 0x00, 0x00, 0x00, 0x6b, 0x1d, 0x00, 0xbf, 0x05,
   0x00, 0x00, 0x00, 0x00, 0x00, 0x5e, 0x1d, 0x80, 0x57, 0x03, 0x00, 0x00,
   0x00, 0x00, 0x00, 0xb8, 0x7f, 0xc0, 0xfb, 0x03, 0x00, 0x00, 0x00, 0x00,
   0x00, 0xc8, 0x36, 0x40, 0xed, 0x00, 0x00, 0x00, 0x00, 0x00, 0x00, 0xb0,
   0xfa, 0x60, 0xaa, 0x00, 0x00, 0x00, 0x00, 0x00, 0x00, 0xe0, 0xfd, 0x79,
   0xed, 0x00, 0x00, 0x00, 0x00, 0x00, 0x00, 0xc0, 0xe6, 0x7b, 0x36, 0x00,
   0x00, 0x00, 0x00, 0x00, 0x00, 0x80, 0x4b, 0x9f, 0x1d, 0x00, 0x00, 0x00,
   0x00, 0x00, 0x00, 0x80, 0xb7, 0xde, 0x1a, 0x00, 0x00, 0x00, 0x00, 0x00,
   0x00, 0x00, 0xde, 0x57, 0x0f, 0x00, 0x00, 0x00, 0x00, 0x00, 0x00, 0x00,
   0xfc, 0xad, 0x01, 0x00, 0x00, 0x00, 0x00, 0x00, 0x00, 0x00, 0xb0, 0x76,
   0x00, 0x00, 0x00, 0x00, 0x00, 0x00, 0x00, 0x00, 0xd8, 0xff, 0x01, 0x00,
   0x00, 0x00, 0x00, 0x00, 0x00, 0x00, 0x78, 0xab, 0x03, 0x00, 0x00, 0x00,
   0x00, 0x00, 0x00, 0x00, 0x9c, 0xdf, 0x02, 0x00, 0x00, 0x00, 0x00, 0x00,
   0x00, 0x00, 0x36, 0xf5, 0x0f, 0x00, 0x00, 0x00, 0x00, 0x00, 0x00, 0x00,
   0xf5, 0x7f, 0x0d, 0x00, 0x00, 0x00, 0x00, 0x00, 0x00, 0x80, 0xa5, 0xad,
   0x3a, 0x00, 0x00, 0x00, 0x00, 0x00, 0x00, 0xc0, 0x76, 0xcb, 0x7f, 0x00,
   0x00, 0x00, 0x00, 0x00, 0x00, 0xe0, 0xce, 0x18, 0xb1, 0x00, 0x00, 0x00,
   0x00, 0x00, 0x00, 0x70, 0xe7, 0xb0, 0xef, 0x00, 0x00, 0x00, 0x00, 0x00,
   0x00, 0xd8, 0x35, 0x60, 0xdb, 0x00, 0x00, 0x00, 0x00, 0x00, 0x00, 0xf4,
   0x1f, 0xc0, 0x68, 0x03, 0x00, 0x00, 0x00, 0x00, 0x00, 0x7c, 0x1f, 0x80,
   0xaf, 0x03, 0x00, 0x00, 0x00, 0x00, 0x00, 0xb6, 0x05, 0x00, 0x17, 0x0f,
   0x00, 0x00, 0x00, 0x00, 0x00, 0xd3, 0x07, 0x00, 0x8d, 0x0e, 0x00, 0x00,
   0x00, 0x00, 0x00, 0xf5, 0x01, 0x00, 0xf6, 0x1d, 0x00, 0x00, 0x00, 0x00,
   0x00, 0x6b, 0x01, 0x00, 0xbc, 0xd6, 0xff, 0xff, 0x7f, 0x00, 0x00, 0xb1,
   0x01, 0x00, 0xf8, 0xdb, 0xff, 0xff, 0x7f, 0x00, 0x00, 0x5b, 0x00, 0x00,
   0x50, 0xd9, 0xff, 0xff, 0x7f, 0x00, 0x00, 0x69, 0x00, 0x00, 0xe0, 0xd5,
   0x03, 0x0f, 0x7c, 0x00, 0x00, 0x7f, 0x00, 0x00, 0xe0, 0xdf, 0x03, 0x0f,
   0x7c, 0x00, 0x00, 0x00, 0x00, 0x00, 0x00, 0xc0, 0x03, 0x0f, 0x7c, 0x00,
   0x00, 0x00, 0x00, 0x00, 0x00, 0xc0, 0x03, 0x0f, 0x7c, 0x00, 0x00, 0x00,
   0x00, 0x00, 0x00, 0xc0, 0x03, 0x0f, 0x7c, 0x00, 0x00, 0x00, 0x00, 0x00,
   0x00, 0xc0, 0x03, 0x0f, 0x7c, 0x00, 0x00, 0x00, 0x00, 0x00, 0x00, 0xc0,
   0x03, 0x0f, 0x7c, 0x00, 0x00, 0x00, 0x00, 0x00, 0x00, 0xc0, 0x03, 0x0f,
   0x7c, 0x00, 0x00, 0x00, 0x00, 0x00, 0x00, 0xc0, 0x03, 0x0f, 0x7c, 0x00,
   0x00, 0x00, 0x00, 0x00, 0x00, 0xc0, 0x03, 0x0f, 0x7c, 0x00, 0x00, 0x00,
   0x00, 0x00, 0x00, 0xc0, 0x03, 0x0f, 0x7c, 0x00, 0x00, 0x00, 0x00, 0x00,
   0x00, 0xc0, 0x03, 0x0f, 0x7c, 0x00, 0x00, 0x00, 0x00, 0x00, 0x00, 0xc0,
   0x03, 0x0f, 0x7c, 0x00, 0x00, 0x00, 0x00, 0x00, 0x00, 0x00, 0x00, 0x00,
   0x00, 0x00, 0x00, 0x00, 0x00, 0x00, 0x00, 0x00, 0x00, 0x00, 0x00, 0x00,
   0x00, 0x00, 0x00, 0x00, 0x00, 0x00, 0x00, 0x00, 0x00, 0x00, 0x00, 0x00,
   0x00, 0x00, 0x00, 0x00, 0x00, 0x00, 0x00, 0x00, 0x00, 0x00, 0x00, 0x00,
   0x00, 0x00, 0x00, 0x00, 0x00, 0x00, 0x00, 0x00, 0x00, 0x00, 0x00, 0x00,
   0x00, 0x00, 0x00, 0x00 };
